Land_normalized_pl04_filtered_grf
version=1
nRows=17
nColumns=37
inDegrees=yes
endheader
time		1_ground_force_vx		1_ground_force_vy		1_ground_force_vz		1_ground_force_px		1_ground_force_py		1_ground_force_pz		1_ground_torque_x		1_ground_torque_y		1_ground_torque_z		2_ground_force_vx		2_ground_force_vy		2_ground_force_vz		2_ground_force_px		2_ground_force_py		2_ground_force_pz		2_ground_torque_x		2_ground_torque_y		2_ground_torque_z		3_ground_force_vx		3_ground_force_vy		3_ground_force_vz		3_ground_force_px		3_ground_force_py		3_ground_force_pz		3_ground_torque_x		3_ground_torque_y		3_ground_torque_z		4_ground_force_vx		4_ground_force_vy		4_ground_force_vz		4_ground_force_px		4_ground_force_py		4_ground_force_pz		4_ground_torque_x		4_ground_torque_y		4_ground_torque_z		
0.634500		5.868427		-37.208119		-34.221013		0.133772		0.000000		0.265352		-0.024692		0.156558		0.143990		-4.352146		-39.468474		-14.857229		-0.142209		0.000000		0.280580		0.131489		1.192441		0.448874		22.803751		0.988985		0.371547		0.375449		1.311084		1.912695		-0.092444		-0.004009		-0.001506		-18.367085		-0.509939		1.077109		-0.265133		1.310118		1.922912		0.000657		0.000018		-0.000039		
0.637429		8.027992		-58.762331		-51.663159		0.132970		0.000000		0.266469		-0.033245		0.243343		0.213945		-2.921349		-69.925881		-34.787978		-0.142685		0.000000		0.276072		0.063988		1.529863		0.760973		22.851980		0.934334		0.277791		0.375453		1.311073		1.912656		-0.093264		-0.003814		-0.001134		-18.448497		-0.486915		1.012236		-0.265181		1.310104		1.922910		0.000481		0.000013		-0.000027		
0.640359		7.516011		-62.522608		-53.791376		0.132536		0.000000		0.266612		-0.033481		0.278554		0.239651		1.057657		-83.018229		-49.383398		-0.144398		0.000000		0.272519		-0.017709		1.401865		0.833629		22.798802		0.896303		0.129830		0.375443		1.311057		1.912635		-0.094864		-0.003729		-0.000540		-18.539493		-0.471412		1.005657		-0.265252		1.310089		1.922943		0.001349		0.000034		-0.000073		
0.643288		2.701369		-32.100806		-28.513736		0.132585		0.000000		0.262770		-0.018879		0.226262		0.201218		7.582674		-58.435787		-47.193276		-0.150023		0.000000		0.265977		-0.083228		0.646889		0.521130		22.619232		0.886309		-0.026104		0.375421		1.311041		1.912631		-0.096777		-0.003792		0.000112		-18.616090		-0.467024		1.041949		-0.265329		1.310076		1.922990		0.003144		0.000079		-0.000176		
0.646217		-7.261011		46.224636		32.372163		0.130986		0.000000		0.277327		-0.022586		0.141886		0.098936		15.724598		22.114601		-16.417911		-0.165456		0.000000		0.267316		-0.917958		-1.295476		0.955896		22.336210		0.909805		-0.147440		0.375392		1.311030		1.912640		-0.098530		-0.004013		0.000651		-18.658572		-0.472071		1.090637		-0.265396		1.310069		1.923037		0.005362		0.000135		-0.000313		
0.649146		-21.743280		177.853624		128.158891		0.130813		0.000000		0.274361		-0.003577		0.029200		0.021049		23.660603		167.552166		50.764534		-0.134421		0.000000		0.273195		-0.614487		-4.342447		-1.313363		22.015933		0.964062		-0.208152		0.375361		1.311026		1.912659		-0.099836		-0.004372		0.000944		-18.655795		-0.479462		1.120869		-0.265445		1.310066		1.923078		0.007362		0.000189		-0.000442		
0.652076		-38.319417		355.687633		245.847432		0.130374		0.000000		0.275161		-0.012660		0.117621		0.081263		29.181442		371.129653		153.628825		-0.135951		0.000000		0.270526		-0.545553		-6.935154		-2.870373		21.743265		1.038755		-0.201735		0.375331		1.311032		1.912682		-0.100644		-0.004809		0.000934		-18.608641		-0.480095		1.113498		-0.265475		1.310069		1.923108		0.008751		0.000226		-0.000523		
0.655005		-53.167787		560.044899		360.864066		0.129848		0.000000		0.276972		-0.066297		0.698367		0.449980		30.667085		608.689724		280.107052		-0.136217		0.000000		0.268013		-0.451158		-8.954463		-4.120648		21.590948		1.117786		-0.137177		0.375306		1.311045		1.912703		-0.101060		-0.005232		0.000642		-18.531891		-0.468204		1.066296		-0.265488		1.310075		1.923130		0.009620		0.000243		-0.000554		
0.657934		-62.354078		763.912349		443.212304		0.129328		0.000000		0.279647		-0.176279		2.160404		1.253104		28.209471		843.945265		407.768295		-0.135751		0.000000		0.265463		-0.319394		-9.551651		-4.614922		21.596165		1.181056		-0.033528		0.375286		1.311062		1.912721		-0.101188		-0.005534		0.000157		-18.449866		-0.445515		0.993100		-0.265491		1.310084		1.923148		0.010454		0.000253		-0.000563		
0.660864		-63.863043		942.191101		469.083510		0.128988		0.000000		0.283209		-0.329016		4.857018		2.416835		24.303748		1040.785473		509.816518		-0.134719		0.000000		0.262931		-0.193310		-8.272125		-4.052018		21.748076		1.209576		0.087161		0.375271		1.311078		1.912733		-0.101051		-0.005620		-0.000405		-18.386041		-0.421606		0.918162		-0.265492		1.310090		1.923168		0.011778		0.000270		-0.000588		
0.663793		-59.056240		1079.791208		431.730611		0.129101		0.000000		0.287556		-0.484172		8.858240		3.539155		23.220332		1176.824791		564.475226		-0.133263		0.000000		0.260836		-0.105707		-5.356947		-2.570039		21.994439		1.194317		0.200471		0.375254		1.311094		1.912745		-0.100666		-0.005466		-0.000918		-18.353293		-0.410067		0.870125		-0.265495		1.310094		1.923191		0.013793		0.000308		-0.000654		
0.666722		-52.306211		1173.969870		346.132801		0.129860		0.000000		0.292318		-0.607990		13.650923		4.021846		29.231756		1250.210137		563.182568		-0.131732		0.000000		0.259986		-0.042491		-1.825327		-0.823218		22.259435		1.142811		0.286748		0.375236		1.311109		1.912760		-0.100149		-0.005142		-0.001290		-18.350821		-0.423156		0.873140		-0.265501		1.310094		1.923219		0.016208		0.000374		-0.000771		
0.669652		-48.465903		1231.596207		244.071843		0.131098		0.000000		0.296860		-0.714900		18.167918		3.598681		44.583390		1277.064453		513.927835		-0.130797		0.000000		0.261365		0.028357		0.807928		0.324582		22.469051		1.077423		0.336113		0.375214		1.311125		1.912783		-0.099699		-0.004781		-0.001491		-18.366988		-0.465943		0.939150		-0.265514		1.310092		1.923250		0.018339		0.000465		-0.000938		
0.672581		-49.808433		1263.621014		161.270799		0.132152		0.000000		0.300383		-0.843146		21.389813		2.729510		68.334646		1281.639373		438.009367		-0.131408		0.000000		0.265523		0.062086		1.166342		0.398908		22.574823		1.025595		0.350635		0.375188		1.311142		1.912815		-0.099441		-0.004517		-0.001545		-18.386441		-0.532699		1.062954		-0.265529		1.310089		1.923281		0.019399		0.000562		-0.001122		
0.675510		-54.737899		1279.638243		122.833480		0.132243		0.000000		0.302131		-0.985697		23.043154		2.211927		96.413012		1284.564542		361.826223		-0.134279		0.000000		0.271868		-0.092822		-1.236101		-0.348060		22.566717		1.005607		0.343002		0.375160		1.311163		1.912858		-0.099326		-0.004426		-0.001510		-18.399222		-0.608523		1.222510		-0.265550		1.310089		1.923316		0.018835		0.000623		-0.001251		
0.678439		-59.213246		1284.745794		134.635867		0.131021		0.000000		0.301735		-1.085309		23.547844		2.467726		122.646955		1295.140856		307.721186		-0.139038		0.000000		0.278623		-0.539661		-5.695984		-1.352831		22.470283		1.015807		0.330302		0.375131		1.311184		1.912909		-0.099195		-0.004484		-0.001458		-18.406733		-0.674331		1.384831		-0.265574		1.310094		1.923355		0.016568		0.000607		-0.001247		
0.681369		-59.527821		1279.440053		183.474971		0.128686		0.000000		0.299439		-1.095701		23.550071		3.377176		140.656249		1310.258380		287.230073		-0.143994		0.000000		0.283740		-1.154130		-10.748977		-2.356197		22.331625		1.035222		0.327451		0.375105		1.311202		1.912963		-0.098890		-0.004584		-0.001450		-18.421745		-0.712094		1.513763		-0.265601		1.310106		1.923401		0.013069		0.000505		-0.001074		
